<?xml version="1.0" encoding="UTF-8"?>
<svg version="1.1" xmlns="http://www.w3.org/2000/svg" width="512" height="512">
<path d="M0 0 C0.81448266 -0.00367669 1.62896532 -0.00735338 2.46812928 -0.01114148 C5.19532219 -0.02214765 7.92247695 -0.02601701 10.64968872 -0.02983093 C12.60636007 -0.03609812 14.56303023 -0.04274514 16.5196991 -0.04974365 C22.94599584 -0.07076381 29.37229275 -0.08114714 35.7986145 -0.09111023 C38.01501604 -0.09515916 40.23141746 -0.09927613 42.44781876 -0.10346031 C52.86652296 -0.12251094 63.2852201 -0.13673979 73.70393836 -0.14507228 C85.7066892 -0.15483133 97.70925497 -0.18111663 109.71194065 -0.22157317 C119.00307105 -0.25180832 128.29414865 -0.26654834 137.58532727 -0.26985329 C143.12744243 -0.27219618 148.66935986 -0.28105656 154.21142197 -0.30631447 C159.43340649 -0.32972852 164.65506498 -0.33377514 169.87708855 -0.32355309 C171.78329622 -0.32306077 173.68952068 -0.32929025 175.59567833 -0.34310913 C198.64013979 -0.50068754 217.36065394 5.37096678 234.4236145 21.57295227 C248.45182716 35.96359596 254.83833386 54.31920785 254.931427 74.27217102 C254.910802 75.55092102 254.890177 76.82967102 254.868927 78.14717102 C255.70552856 78.11236633 256.54213013 78.07756165 257.40408325 78.04170227 C279.48331366 77.5282318 300.21616871 84.28617755 316.45095825 99.51435852 C330.42192941 114.72669223 336.61196916 135.90586754 335.97439575 156.33857727 C335.92218872 157.23383118 335.92218872 157.23383118 335.868927 158.14717102 C336.879552 158.08529602 337.890177 158.02342102 338.931427 157.95967102 C355.75191633 158.04866832 370.92661018 164.75122873 383.868927 175.14717102 C385.106427 176.07142883 385.106427 176.07142883 386.368927 177.01435852 C398.54788739 187.4045341 407.42486536 204.4766592 409.09742165 220.3102634 C409.46489523 226.12441919 409.41415248 231.94307689 409.38650513 237.7660675 C409.39193686 239.70436628 409.39906538 241.64266092 409.40774536 243.58094788 C409.42585781 248.8062705 409.41896109 254.03127441 409.40622902 259.25660205 C409.39603691 264.74951653 409.40551196 270.24240539 409.41177368 275.73532104 C409.41903271 284.95737052 409.40950893 294.17929149 409.39041138 303.40132141 C409.36865255 314.0305326 409.37569399 324.6594367 409.397717 335.28864044 C409.41592856 344.44834357 409.41840108 353.60795481 409.40796232 362.76767021 C409.40175812 368.22354632 409.40080637 373.67927859 409.41410828 379.13514519 C409.42575005 384.26783334 409.41749042 389.40012961 409.39453125 394.53277588 C409.38928804 396.40510981 409.39068163 398.27747732 409.39958191 400.14979744 C409.4933679 421.90176387 404.42499088 441.00775474 388.868927 457.14717102 C371.16426871 474.24826142 351.67111993 478.77642319 327.95291138 478.66474915 C325.99476097 478.6701819 324.03661466 478.67731098 322.07847595 478.68598938 C316.80362821 478.70408853 311.52909649 478.69721103 306.25424385 478.68447304 C300.70795019 478.67427538 295.1616818 478.68375736 289.61538696 478.6900177 C280.30515739 478.69727452 270.99505516 478.68775814 261.68484497 478.6686554 C250.95393527 478.64689053 240.22332969 478.65394329 229.49242735 478.67596102 C220.24353307 478.69417118 210.99472981 478.69664597 201.74582338 478.68620634 C196.23742477 478.6800022 190.72916862 478.67905034 185.22077942 478.69235229 C180.03965357 478.70399226 174.858916 478.69573766 169.67783165 478.67277527 C167.78775868 478.66753139 165.89765245 478.66892683 164.00759315 478.67782593 C141.24432445 478.77504034 122.34371902 473.04006185 105.53689575 456.90888977 C90.28798833 441.03651765 84.40182938 420.9897982 84.7986145 399.27998352 C84.82181763 398.5761554 84.84502075 397.87232727 84.868927 397.14717102 C83.87763794 397.17939758 82.88634888 397.21162415 81.86502075 397.24482727 C61.6689122 396.75127623 42.0644194 386.74397846 28.118927 372.58467102 C15.07413001 357.33411745 12.45654134 339.51818165 11.868927 320.14717102 C10.96013794 320.18197571 10.05134888 320.2167804 9.11502075 320.25263977 C-12.55418266 320.71936107 -31.87239349 314.37664915 -47.81466675 299.43232727 C-59.73429778 287.6735007 -68.65076881 272.63076684 -69.26250076 255.45759487 C-69.27057171 253.99569523 -69.27320038 252.53375933 -69.27151489 251.07183838 C-69.27448601 250.26340612 -69.27745714 249.45497387 -69.28051829 248.62204367 C-69.28918362 245.9154838 -69.29071173 243.20896827 -69.29220581 240.50239563 C-69.29683562 238.56056118 -69.3018605 236.61872763 -69.30725098 234.67689514 C-69.32036368 229.40176068 -69.32681806 224.12663895 -69.33126163 218.85149074 C-69.33419496 215.55293466 -69.33830032 212.25438204 -69.34276581 208.95582771 C-69.35643948 198.62736272 -69.36610605 188.29890564 -69.3699677 177.97043222 C-69.3744444 166.06333559 -69.3919749 154.15635398 -69.42096829 142.24929231 C-69.44261958 133.03633896 -69.45267387 123.82341788 -69.45400882 114.61043936 C-69.45505463 109.11261258 -69.4609144 103.61489394 -69.47882843 98.11709404 C-69.49536811 92.94029999 -69.49743606 87.76369468 -69.48868942 82.58688354 C-69.48792213 80.69393468 -69.49222091 78.80097543 -69.50214767 76.90805244 C-69.56726168 63.7102099 -68.67329825 51.94680839 -62.443573 40.02217102 C-62.09472046 39.34404358 -61.74586792 38.66591614 -61.38644409 37.96723938 C-51.65881861 19.62365464 -35.96275323 8.27983919 -16.47872925 2.09248352 C-10.8931837 0.51523495 -5.79797961 -0.00141153 0 0 Z M-30.131073 43.14717102 C-30.956073 44.01342102 -31.781073 44.87967102 -32.631073 45.77217102 C-38.84264785 53.32041387 -41.2806767 62.25408152 -41.27824402 71.79853821 C-41.28192071 72.57344762 -41.28559739 73.34835703 -41.2893855 74.14674854 C-41.30040675 76.74585442 -41.30426358 79.34492029 -41.30807495 81.94404602 C-41.31434094 83.80691657 -41.32098786 85.66978587 -41.32798767 87.53265381 C-41.34901996 93.65415071 -41.35939146 99.77564783 -41.36935425 105.89717102 C-41.37340256 108.00684116 -41.3775195 110.11651116 -41.38170433 112.22618103 C-41.40075667 122.14138072 -41.41498583 132.05657298 -41.4233163 141.97178745 C-41.43307969 153.40293732 -41.45937563 164.83389309 -41.49981719 176.26497459 C-41.5300261 185.10848336 -41.54478983 193.95193665 -41.54809731 202.79549599 C-41.55044296 208.07316832 -41.55933975 213.35063331 -41.58455849 218.62825012 C-41.60792682 223.59905956 -41.6120373 228.56952643 -41.6017971 233.54037666 C-41.60130371 235.35754095 -41.60756579 237.17472259 -41.62135315 238.99183464 C-41.73559548 254.95101961 -39.30877252 267.27550556 -28.06466675 279.36982727 C-18.40982425 288.6101506 -6.97025616 292.2742712 6.16189575 292.19013977 C8.04751221 292.18083435 8.04751221 292.18083435 9.97122192 292.17134094 C10.9274646 292.16336487 11.88370728 292.15538879 12.868927 292.14717102 C12.86947177 291.36916673 12.87001654 290.59116243 12.87057781 289.78958225 C12.88559669 270.78981656 12.92824881 251.79029261 13.00101757 232.790658 C13.03555461 223.60225883 13.0610082 214.41400793 13.06448364 205.22554016 C13.06753933 197.20948796 13.08824362 189.19370059 13.12945157 181.17775053 C13.15063883 176.93997776 13.16345662 172.7025801 13.1550808 168.4647541 C13.11040038 141.26482499 14.92004761 118.9077419 34.868927 98.14717102 C51.10210949 83.54898533 69.72804326 78.68777709 91.22781372 78.71479797 C92.70770064 78.70575445 94.18758014 78.69542102 95.66744995 78.68391418 C99.63758917 78.65662155 103.60758523 78.64709797 107.577806 78.64106011 C111.74449295 78.63160324 115.91107595 78.60539468 120.07769775 78.58105469 C127.94663856 78.53758539 135.81555896 78.50891879 143.68458283 78.4857313 C152.65214926 78.45857397 161.61961009 78.41466949 170.58710074 78.36944258 C189.0143202 78.276877 207.44156762 78.2050685 225.868927 78.14717102 C225.90978535 75.94290109 225.93868225 73.73840776 225.962677 71.53388977 C225.98878052 69.69250427 225.98878052 69.69250427 226.01541138 67.81391907 C225.59922435 57.39606426 220.81762384 48.7243932 213.868927 41.14717102 C207.58811735 35.56109966 200.87879408 31.67434833 192.868927 29.14717102 C192.05019356 28.88283374 192.05019356 28.88283374 191.21492004 28.61315632 C187.86501938 27.94776455 184.54281045 27.99914234 181.14163208 28 C180.35855556 27.99632331 179.57547905 27.99264662 178.76867294 27.98885852 C176.14192807 27.97783644 173.51522278 27.9739803 170.88845825 27.97016907 C169.00588353 27.96390315 167.12331005 27.95725623 165.24073792 27.95025635 C159.05430969 27.92922339 152.86788125 27.91885254 146.681427 27.90888977 C144.54946886 27.9048415 142.41751085 27.90072455 140.28555298 27.89653969 C130.26570181 27.87748726 120.245858 27.86325808 110.2259922 27.85492772 C98.67372217 27.84516409 87.12164419 27.81886756 75.5694418 27.77842683 C66.63251556 27.74821936 57.69564422 27.73345433 48.75866795 27.73014671 C43.42510518 27.72780091 38.09174757 27.71890211 32.75823975 27.69368553 C27.73490171 27.67031972 22.71190265 27.66620572 17.68852425 27.67644691 C15.8520094 27.67694037 14.01547738 27.6706765 12.17901421 27.65689087 C-4.47319945 27.53895685 -18.46180277 30.18131521 -30.131073 43.14717102 Z M48.868927 123.14717102 C42.22233814 131.98514204 39.71503379 141.82468793 39.72848511 152.76693726 C39.72551399 153.52636688 39.72254286 154.28579651 39.71948171 155.06823915 C39.71082124 157.6089653 39.70928869 160.14964418 39.70779419 162.69038391 C39.70316403 164.51399333 39.6981391 166.33760178 39.69274902 168.16120911 C39.67963949 173.11403977 39.67318253 178.06685689 39.66873837 183.0197022 C39.66580445 186.11724672 39.66169897 189.21478757 39.65723419 192.31233025 C39.64356117 202.01288652 39.63389436 211.71343437 39.6300323 221.41399962 C39.62555617 232.59437298 39.60802811 243.77462381 39.57903171 254.95495993 C39.5573743 263.60740852 39.5473258 272.25982275 39.54599118 280.91229814 C39.54494578 286.07477974 39.53909484 291.23714613 39.52117157 296.39959908 C39.50462131 301.26121889 39.50256899 306.12263776 39.51131058 310.98427582 C39.51207732 312.76112089 39.50778649 314.53797707 39.49785233 316.31479454 C39.42628075 329.92260435 39.9003883 342.13839603 48.868927 353.14717102 C49.37166138 353.7736554 49.87439575 354.40013977 50.3923645 355.04560852 C57.88227173 363.41238293 69.01859344 367.35190538 79.868927 369.14717102 C81.53550301 369.16455501 83.20237904 369.16706281 84.868927 369.14717102 C84.87223715 368.42824614 84.87554729 367.70932125 84.87895775 366.96861076 C84.96041265 349.42201779 85.05257739 331.87551319 85.15645409 314.32903862 C85.20643499 305.84346671 85.25287872 297.35790375 85.290802 288.87226868 C85.32389058 281.47049124 85.36381297 274.06878648 85.41171706 266.66708958 C85.43681564 262.75313434 85.45864458 258.83922625 85.47227097 254.92521286 C85.48524425 251.2299517 85.50745725 247.53485372 85.5363102 243.83968353 C85.54949126 241.86000748 85.55327769 239.88027558 85.55662537 237.90055847 C85.77003386 214.69187925 91.64102671 195.22391533 107.868927 178.14717102 C121.78850903 165.7482156 139.05642213 159.09327793 157.67103577 158.98895264 C158.31813446 158.98401466 158.96523316 158.97907668 159.6319409 158.97398907 C161.77986294 158.95874616 163.92775542 158.9502897 166.07571411 158.94184875 C167.62352758 158.93225981 169.17133849 158.92224915 170.71914673 158.91184998 C174.90659873 158.88490489 179.09406188 158.8638393 183.28155208 158.84384799 C187.6631196 158.82192402 192.04465316 158.7945668 196.42619324 158.76779175 C204.71681944 158.71795132 213.00746459 158.67298053 221.29812771 158.62976938 C230.73948713 158.58032292 240.18081245 158.52543235 249.62213886 158.47008979 C269.03770323 158.35640259 288.4532998 158.24953486 307.868927 158.14717102 C307.90298323 156.10171584 307.9270597 154.05609325 307.947052 152.01045227 C307.96155396 150.87132385 307.97605591 149.73219543 307.99099731 148.55854797 C307.52191143 135.44947377 301.26379915 124.92453983 291.868927 116.14717102 C282.89470213 109.53093413 273.34187198 105.99716369 262.22428894 106 C261.06298317 105.99448497 261.06298317 105.99448497 259.87821668 105.98885852 C257.28144478 105.97783723 254.68471292 105.97398042 252.08792114 105.97016907 C250.22667311 105.96390303 248.36542633 105.95725611 246.50418091 105.95025635 C240.38749054 105.92922281 234.27079994 105.91885173 228.15408325 105.90888977 C226.04567387 105.90484136 223.93726463 105.90072441 221.82885551 105.89653969 C211.91845919 105.87748625 202.00807029 105.86325791 192.09765917 105.85492772 C180.67500928 105.84516707 169.25255377 105.81887879 157.82997233 105.77842683 C148.99154344 105.74820604 140.15317006 105.73345302 131.31469053 105.73014671 C126.04089858 105.72780221 120.76731426 105.71892063 115.49357796 105.69368553 C110.52522772 105.67029666 105.55722019 105.66621487 100.58882904 105.67644691 C98.77369734 105.67693983 96.95854815 105.67069209 95.14346886 105.65689087 C77.36665596 105.52938006 60.80419689 108.7393772 48.868927 123.14717102 Z M122.493927 202.83467102 C112.23672916 216.54603816 112.71792475 231.85623954 112.72366333 248.14057922 C112.72066654 249.84507826 112.71726281 251.54957661 112.71348572 253.2540741 C112.70469507 257.85958348 112.70230971 262.46507425 112.70166993 267.07059121 C112.70095669 269.9542607 112.69881721 272.83792553 112.69617271 275.72159386 C112.68693604 285.79957248 112.68283577 295.87753792 112.68362427 305.95552063 C112.6842248 315.32129257 112.67367346 324.68700687 112.6578806 334.05276424 C112.64476883 342.11849782 112.63944189 350.18421264 112.64007968 358.24995679 C112.64033357 363.05634066 112.6375427 367.86267323 112.62690163 372.6690464 C112.61715905 377.19254706 112.61718332 381.71594801 112.62441826 386.23945236 C112.62545644 387.89009816 112.62314732 389.54075038 112.6170578 391.19138527 C112.55338198 409.66222793 114.12808629 425.03342309 127.447052 438.95576477 C141.21983465 451.41791165 157.502495 451.29848768 175.02420044 451.29243469 C176.75810823 451.29543061 178.49201536 451.29883413 180.22592163 451.3026123 C184.9161982 451.31141271 189.6064565 451.31378875 194.29674053 451.31442809 C197.23283514 451.31514087 200.16892515 451.31727951 203.10501862 451.31992531 C213.36454053 451.32916581 223.6240495 451.33326184 233.88357544 451.33247375 C243.4203053 451.33187339 252.95697853 451.34242039 262.49369407 451.35821742 C270.70377992 451.37132836 278.91384734 451.37665616 287.12394357 451.37601835 C292.01753246 451.37576439 296.91107097 451.37855858 301.80464935 451.3891964 C306.41103455 451.39893733 311.01732182 451.3989158 315.62371063 451.39167976 C317.30499415 451.39064132 318.98628395 451.3929523 320.66755676 451.39904022 C339.93073123 451.49472504 339.93073123 451.49472504 357.868927 445.14717102 C358.99234497 444.53228821 358.99234497 444.53228821 360.13845825 443.90498352 C370.3237043 437.76260345 377.50973522 427.50780539 380.41703415 415.97243023 C380.98221101 412.43891309 381.01367507 408.96778666 381.0093689 405.40005493 C381.01234002 404.62696352 381.01531114 403.8538721 381.0183723 403.05735368 C381.027034 400.47050117 381.02856541 397.88369507 381.03005981 395.29682922 C381.03468981 393.44041851 381.03971472 391.58400875 381.04510498 389.7276001 C381.05821426 384.68606357 381.06467117 379.64454034 381.06911564 374.60298944 C381.07204899 371.45118739 381.07615432 368.29938895 381.08061981 365.14758873 C381.09429142 355.28044855 381.10395949 345.41331666 381.1078217 335.54616767 C381.11230051 324.16711347 381.12984163 312.78817951 381.1588223 301.40916187 C381.18046103 292.60642735 381.19052717 283.8037266 381.19186282 275.00096577 C381.19290936 269.74688701 381.19878489 264.49292132 381.21668243 259.23887062 C381.23320078 254.29353887 381.23530035 249.34840475 381.22654343 244.40305519 C381.22577504 242.59311899 381.23008943 240.78317201 381.24000168 238.97326279 C381.31178657 225.0431835 379.7238226 214.89792637 371.868927 203.14717102 C371.002677 201.81685852 371.002677 201.81685852 370.118927 200.45967102 C362.43405699 192.5613324 351.55026705 186.44271783 340.38048553 186.01294994 C338.95490419 186.00355379 337.52928048 185.99964241 336.10366821 186 C335.31650815 185.99632331 334.52934808 185.99264662 333.71833467 185.98885852 C331.0777703 185.97783603 328.4372453 185.97398023 325.79666138 185.97016907 C323.90423457 185.96390318 322.011809 185.95725627 320.11938477 185.95025635 C313.90049088 185.92922306 307.68159677 185.91885254 301.462677 185.90888977 C299.31957486 185.90484151 297.17647285 185.90072457 295.03337097 185.89653969 C284.96119407 185.87748721 274.88902448 185.86325802 264.81683302 185.85492772 C253.20400289 185.84516398 241.59136382 185.81886715 229.97860098 185.77842683 C220.99496601 185.74822007 212.01138565 185.73345439 203.0277009 185.73014671 C197.66619292 185.72780084 192.30488901 185.71890105 186.94343567 185.69368553 C181.89383332 185.67032096 176.84456819 185.66620524 171.79492569 185.67644691 C169.94873556 185.6769404 168.10252835 185.67067566 166.25638962 185.65689087 C148.47495522 185.53162641 134.67617258 188.80455673 122.493927 202.83467102 Z " fill="#000000" transform="translate(86.13107299804688,16.852828979492188)"/>
</svg>
