<?xml version="1.0" encoding="UTF-8"?>
<svg version="1.1" xmlns="http://www.w3.org/2000/svg" width="512" height="512">
<path d="M0 0 C9.032109 6.50553914 14.84595542 14.68027496 17.58203125 25.4921875 C18.38570666 31.00226273 18.75176411 36.36206866 18.78515625 41.92578125 C18.79217056 42.71247696 18.79918488 43.49917267 18.80641174 44.30970764 C18.82387681 46.84975954 18.83026894 49.38957766 18.83203125 51.9296875 C18.83270599 52.80044922 18.83338074 53.67121094 18.83407593 54.56835938 C18.80215406 80.55454894 15.3934155 105.5683765 7.48364258 130.36767578 C7.20457314 131.24678116 6.92550369 132.12588654 6.6379776 133.03163147 C5.95400218 135.18558013 5.26865275 137.33908118 4.58203125 139.4921875 C6.08634453 139.49765594 6.08634453 139.49765594 7.62104797 139.50323486 C17.10972534 139.54030638 26.59808182 139.59821091 36.08651447 139.67609024 C40.96369511 139.71546313 45.84069795 139.74770134 50.71801758 139.76318359 C55.4320667 139.77841759 60.14562668 139.81298164 64.85945702 139.86049652 C66.65057288 139.87524113 68.4417586 139.88322451 70.23293495 139.88407135 C84.45572628 139.89754849 95.82186029 141.22019065 106.58203125 151.4921875 C115.39054078 160.71931927 118.20777426 170.34263074 118.05273438 182.85693359 C117.63007413 193.53360104 114.019625 201.77804916 106.58203125 209.4921875 C102.24671502 213.31440455 97.65741695 216.70891147 92.58203125 219.4921875 C92.99775391 220.28882813 92.99775391 220.28882813 93.421875 221.1015625 C93.78410156 221.80796875 94.14632813 222.514375 94.51953125 223.2421875 C94.87917969 223.93828125 95.23882812 224.634375 95.609375 225.3515625 C99.4735034 233.8557487 98.9306716 246.7963849 96.01953125 255.5546875 C91.56811171 265.71824331 83.64346619 273.79079465 73.58203125 278.4921875 C73.78699219 279.09546875 73.99195313 279.69875 74.203125 280.3203125 C74.47253906 281.11953125 74.74195313 281.91875 75.01953125 282.7421875 C75.28636719 283.53109375 75.55320312 284.32 75.828125 285.1328125 C79.08536723 295.32646177 79.23234163 308.21914493 74.90234375 318.10546875 C69.6594914 327.58293261 62.04169366 334.3046307 52.58203125 339.4921875 C52.85917969 340.02328125 53.13632812 340.554375 53.421875 341.1015625 C53.78410156 341.80796875 54.14632813 342.514375 54.51953125 343.2421875 C54.87917969 343.93828125 55.23882812 344.634375 55.609375 345.3515625 C59.4735034 353.8557487 58.9306716 366.7963849 56.01953125 375.5546875 C51.4579269 385.9698191 43.32532963 394.46225717 32.6865387 398.66004944 C25.85405024 401.03483433 19.33279074 401.04709665 12.15991211 400.99389648 C10.74236009 400.997689 9.32481179 401.00319667 7.90727234 401.01026917 C4.08382586 401.02413894 0.26083388 401.01310562 -3.56258702 400.99655795 C-7.59962412 400.98258062 -11.63663814 400.98918336 -15.6736908 400.99269104 C-22.46653431 400.99538788 -29.25920066 400.98197898 -36.05200195 400.95874023 C-43.83448211 400.93229483 -51.61666331 400.93033383 -59.39917284 400.9421286 C-66.95166869 400.9530371 -74.50405951 400.94660819 -82.05654716 400.93257332 C-85.23646047 400.92690901 -88.41629444 400.92681916 -91.59620857 400.93163872 C-116.70250663 400.95989654 -141.14765085 399.46976653 -165.66796875 393.6796875 C-167.20003819 393.32874043 -168.73226768 392.97849145 -170.26464844 392.62890625 C-182.07117521 389.91127821 -193.78387864 386.87478639 -205.41796875 383.4921875 C-205.85496094 384.63880859 -205.85496094 384.63880859 -206.30078125 385.80859375 C-209.12354921 392.58915875 -213.78994981 396.08213796 -220.27029419 399.21304321 C-229.51580039 402.56515178 -240.4634525 401.32102692 -250.1328125 401.25390625 C-252.63717329 401.2554102 -255.14153359 401.25884398 -257.64588928 401.26411438 C-263.5400958 401.26898173 -269.4336427 401.24375865 -275.32772118 401.20701104 C-280.69500458 401.17651593 -286.06161767 401.18634322 -291.42891973 401.2065236 C-297.25749503 401.2274883 -303.08570983 401.22010182 -308.91427803 401.20020485 C-311.38583291 401.19435679 -313.8574154 401.19565478 -316.32896233 401.20422935 C-319.77584408 401.21221169 -323.22102388 401.1880071 -326.66772461 401.1550293 C-327.68752914 401.16357941 -328.70733368 401.17212952 -329.75804138 401.18093872 C-331.1685376 401.1576223 -331.1685376 401.1576223 -332.60752869 401.13383484 C-333.82718779 401.12905892 -333.82718779 401.12905892 -335.07148647 401.12418652 C-338.78913321 400.12287954 -340.1648593 398.60016826 -342.41796875 395.4921875 C-343.14385273 392.13789096 -343.0928548 388.85488813 -343.05288696 385.43359375 C-343.06068692 384.41196136 -343.06848687 383.39032898 -343.07652318 382.33773804 C-343.09648877 378.9096892 -343.08065988 375.48274485 -343.06494141 372.0546875 C-343.07171545 369.59903311 -343.08061737 367.1433838 -343.0914917 364.68774414 C-343.11194544 358.70749782 -343.10892268 352.72768599 -343.09442849 346.74745655 C-343.08313661 341.88727557 -343.0816051 337.02718252 -343.08704758 332.16699219 C-343.08781374 331.47527294 -343.08857991 330.7835537 -343.08936929 330.07087326 C-343.09096792 328.66565956 -343.09258898 327.26044589 -343.09423225 325.85523224 C-343.10849007 312.67843746 -343.09209658 299.50181661 -343.06523041 286.32505035 C-343.04289153 275.01869647 -343.04677165 263.71259925 -343.06982422 252.40625 C-343.09658173 239.27662937 -343.10711677 226.14716118 -343.0917629 213.01751709 C-343.09017015 211.61747235 -343.0885983 210.2174276 -343.08704758 208.81738281 C-343.0862762 208.12853374 -343.08550482 207.43968468 -343.08471007 206.7299614 C-343.0803929 201.87560111 -343.08767994 197.0213375 -343.09944534 192.16699219 C-343.11493264 185.63339103 -343.10390677 179.10020002 -343.07497406 172.56661987 C-343.06835187 170.16601366 -343.0702801 167.76536672 -343.08128738 165.36477661 C-343.09490876 162.09288952 -343.07786638 158.822568 -343.05288696 155.55078125 C-343.06961738 154.11863785 -343.06961738 154.11863785 -343.08668578 152.65756226 C-343.02029448 148.18834002 -342.8656676 146.10975155 -340.17893887 142.40362835 C-337.29694637 140.40840278 -336.05067121 139.86402276 -332.60752869 139.85054016 C-331.66719788 139.83499588 -330.72686707 139.8194516 -329.75804138 139.80343628 C-328.22833458 139.81626144 -328.22833458 139.81626144 -326.66772461 139.8293457 C-325.58411652 139.81897781 -324.50050842 139.80860992 -323.38406372 139.79792786 C-319.79992828 139.77081599 -316.21701372 139.78053403 -312.6328125 139.79296875 C-310.13521484 139.78705907 -307.63762001 139.77981203 -305.14002991 139.77128601 C-299.90028255 139.75939577 -294.66085129 139.76569975 -289.42114258 139.78540039 C-284.05624572 139.80523091 -278.69222102 139.79834048 -273.32739258 139.76489258 C-266.83752735 139.72488205 -260.34834081 139.71457333 -253.85836983 139.72823143 C-251.39258228 139.72971222 -248.92677099 139.72209691 -246.4610424 139.70498085 C-219.87926592 139.55050696 -219.87926592 139.55050696 -210.36802673 148.39936829 C-207.58299923 151.32089766 -206.32525723 153.57290343 -205.41796875 157.4921875 C-168.42380367 147.75237323 -130.5134005 134.92651453 -100.41796875 110.4921875 C-99.3413933 109.65462973 -98.26456087 108.8174022 -97.1875 107.98046875 C-80.58779252 94.81761927 -68.91457808 77.32431155 -64.41796875 56.4921875 C-63.74718531 50.60465523 -63.54171479 44.71744196 -63.35449219 38.79760742 C-62.85490272 24.36756381 -59.97823829 13.66408942 -49.3515625 3.51953125 C-35.64424613 -8.02992494 -15.26222402 -9.51731579 0 0 Z M-37.98046875 22.39453125 C-42.34054903 28.84794554 -42.48328403 34.98080817 -42.60571289 42.58789062 C-43.26165859 75.16395445 -56.73118597 98.46844263 -79.85546875 120.8515625 C-86.59086526 127.13519461 -93.67284671 132.51649319 -101.41796875 137.4921875 C-101.97403809 137.85135254 -102.53010742 138.21051758 -103.10302734 138.58056641 C-133.49280568 158.00037598 -167.60986344 169.79016117 -202.41796875 178.4921875 C-202.41796875 239.2121875 -202.41796875 299.9321875 -202.41796875 362.4921875 C-146.36088199 376.86579949 -100.05198503 380.68242768 -43.09985352 380.67749023 C-36.80251461 380.67738733 -30.50528523 380.69120896 -24.20797253 380.70826244 C-19.31717923 380.719373 -14.42641292 380.72140998 -9.53560829 380.72088051 C-7.21165898 380.72205549 -4.88770885 380.72645002 -2.5637722 380.73421288 C0.66695691 380.74402427 3.89744066 380.74113366 7.12817383 380.73510742 C8.07308182 380.74072693 9.01798981 380.74634644 9.99153137 380.75213623 C18.03828688 380.7140513 25.20824353 379.87449713 31.58203125 374.4921875 C35.50107548 370.21122626 36.94363054 366.28700305 37.20703125 360.4921875 C36.9296844 354.70439668 35.61967294 350.69522656 31.58203125 346.4921875 C24.75577761 340.88540833 18.08913642 340.3727455 9.4453125 340.2109375 C8.3034272 340.18332336 8.3034272 340.18332336 7.13847351 340.15515137 C3.9032404 340.07695341 0.66782071 340.00859642 -2.56762695 339.93994141 C-4.93841718 339.8881909 -7.30903202 339.83098387 -9.6796875 339.7734375 C-10.41096359 339.75986206 -11.14223969 339.74628662 -11.89567566 339.7322998 C-14.98644956 339.65644082 -17.46419921 339.47677735 -20.41796875 338.4921875 C-21.40072463 335.54391987 -21.552116 333.56566246 -21.54296875 330.4921875 C-21.54554688 329.6259375 -21.548125 328.7596875 -21.55078125 327.8671875 C-21.41796875 325.4921875 -21.41796875 325.4921875 -20.41796875 322.4921875 C-17.3956678 321.48475385 -15.31791699 321.35039158 -12.15551758 321.31860352 C-11.08042435 321.30511368 -10.00533112 321.29162384 -8.8976593 321.27772522 C-7.73518173 321.26728683 -6.57270416 321.25684845 -5.375 321.24609375 C-2.91471011 321.21314561 -0.45442374 321.17993413 2.00585938 321.14648438 C5.88547262 321.0991451 9.76507261 321.05473272 13.64477539 321.01538086 C17.38833734 320.97552781 21.13160296 320.92400445 24.875 320.87109375 C26.60353462 320.85847252 26.60353462 320.85847252 28.36698914 320.84559631 C36.99728463 320.71393309 44.7089036 320.29616196 51.58203125 314.4921875 C55.50107548 310.21122626 56.94363054 306.28700305 57.20703125 300.4921875 C56.9296844 294.70439668 55.61967294 290.69522656 51.58203125 286.4921875 C44.75577761 280.88540833 38.08913642 280.3727455 29.4453125 280.2109375 C28.3034272 280.18332336 28.3034272 280.18332336 27.13847351 280.15515137 C23.9032404 280.07695341 20.66782071 280.00859642 17.43237305 279.93994141 C15.06158282 279.8881909 12.69096798 279.83098387 10.3203125 279.7734375 C9.58903641 279.75986206 8.85776031 279.74628662 8.10432434 279.7322998 C5.01355044 279.65644082 2.53580079 279.47677735 -0.41796875 278.4921875 C-1.40072463 275.54391987 -1.552116 273.56566246 -1.54296875 270.4921875 C-1.54554688 269.6259375 -1.548125 268.7596875 -1.55078125 267.8671875 C-1.41796875 265.4921875 -1.41796875 265.4921875 -0.41796875 262.4921875 C2.6043322 261.48475385 4.68208301 261.35039158 7.84448242 261.31860352 C8.91957565 261.30511368 9.99466888 261.29162384 11.1023407 261.27772522 C12.26481827 261.26728683 13.42729584 261.25684845 14.625 261.24609375 C17.08528989 261.21314561 19.54557626 261.17993413 22.00585938 261.14648438 C25.88547262 261.0991451 29.76507261 261.05473272 33.64477539 261.01538086 C37.38833734 260.97552781 41.13160296 260.92400445 44.875 260.87109375 C46.60353462 260.85847252 46.60353462 260.85847252 48.36698914 260.84559631 C56.99728463 260.71393309 64.7089036 260.29616196 71.58203125 254.4921875 C75.50107548 250.21122626 76.94363054 246.28700305 77.20703125 240.4921875 C76.9296844 234.70439668 75.61967294 230.69522656 71.58203125 226.4921875 C64.75577761 220.88540833 58.08913642 220.3727455 49.4453125 220.2109375 C48.3034272 220.18332336 48.3034272 220.18332336 47.13847351 220.15515137 C43.9032404 220.07695341 40.66782071 220.00859642 37.43237305 219.93994141 C35.06158282 219.8881909 32.69096798 219.83098387 30.3203125 219.7734375 C29.58903641 219.75986206 28.85776031 219.74628662 28.10432434 219.7322998 C25.01355044 219.65644082 22.53580079 219.47677735 19.58203125 218.4921875 C18.59927537 215.54391987 18.447884 213.56566246 18.45703125 210.4921875 C18.45445312 209.6259375 18.451875 208.7596875 18.44921875 207.8671875 C18.58203125 205.4921875 18.58203125 205.4921875 19.58203125 202.4921875 C22.6043322 201.48475385 24.68208301 201.35039158 27.84448242 201.31860352 C28.91957565 201.30511368 29.99466888 201.29162384 31.1023407 201.27772522 C32.26481827 201.26728683 33.42729584 201.25684845 34.625 201.24609375 C37.08528989 201.21314561 39.54557626 201.17993413 42.00585938 201.14648438 C45.88547262 201.0991451 49.76507261 201.05473272 53.64477539 201.01538086 C57.38833734 200.97552781 61.13160296 200.92400445 64.875 200.87109375 C66.60353462 200.85847252 66.60353462 200.85847252 68.36698914 200.84559631 C76.99728463 200.71393309 84.7089036 200.29616196 91.58203125 194.4921875 C95.50107548 190.21122626 96.94363054 186.28700305 97.20703125 180.4921875 C96.9296844 174.70439668 95.61967294 170.69522656 91.58203125 166.4921875 C85.43637983 161.44442452 79.62758762 160.38184001 71.75556946 160.34069824 C70.61574615 160.33235458 69.47592285 160.32401093 68.30155945 160.31541443 C66.44746208 160.3091378 66.44746208 160.3091378 64.5559082 160.30273438 C62.54087362 160.29000477 60.52583904 160.27727487 58.51080453 160.264534 C56.35317389 160.25182099 54.19554348 160.2414845 52.03789711 160.23182678 C47.53769426 160.21154682 43.03755488 160.183905 38.53739929 160.15515137 C28.17709722 160.09006874 17.81674828 160.03450418 7.45639038 159.97916412 C-2.0491922 159.92831129 -11.55475155 159.87545008 -21.06027633 159.81463861 C-25.5352516 159.78628994 -30.01021928 159.76269498 -34.48523939 159.74271393 C-36.59611148 159.7325548 -38.70695623 159.7201695 -40.81781006 159.70677185 C-43.39321329 159.6904368 -45.96864222 159.67763652 -48.54408264 159.66896057 C-49.67544647 159.66061691 -50.8068103 159.65227325 -51.97245789 159.64367676 C-53.44992508 159.63594616 -53.44992508 159.63594616 -54.9572401 159.62805939 C-57.41796875 159.4921875 -57.41796875 159.4921875 -60.41796875 158.4921875 C-61.40072463 155.54391987 -61.552116 153.56566246 -61.54296875 150.4921875 C-61.54554688 149.6259375 -61.548125 148.7596875 -61.55078125 147.8671875 C-61.41796875 145.4921875 -61.41796875 145.4921875 -60.41796875 142.4921875 C-56.55473537 141.20444304 -52.84306338 141.25835957 -48.8125 141.17578125 C-47.5536927 141.1446096 -47.5536927 141.1446096 -46.26945496 141.11280823 C-43.58987581 141.04744732 -40.91019906 140.98849036 -38.23046875 140.9296875 C-36.41340138 140.88648948 -34.59634387 140.84287477 -32.77929688 140.79882812 C-28.32562076 140.6917797 -23.87184649 140.59047431 -19.41796875 140.4921875 C-18.78044921 139.24550368 -18.14626141 137.99711583 -17.51342773 136.74804688 C-17.15989731 136.05304077 -16.80636688 135.35803467 -16.44212341 134.64196777 C-14.79879843 131.19250086 -13.61758611 127.63473771 -12.48046875 123.9921875 C-12.22813477 123.18394531 -11.97580078 122.37570313 -11.71582031 121.54296875 C-4.76947244 98.49887367 -2.26949265 75.74289148 -2.16796875 51.8046875 C-2.16252045 51.00929565 -2.15707214 50.21390381 -2.15145874 49.39440918 C-2.13970668 47.08957783 -2.1433754 44.78530365 -2.15234375 42.48046875 C-2.14840103 41.79461197 -2.14445831 41.10875519 -2.14039612 40.40211487 C-2.21023191 32.97166632 -3.52647565 26.28474511 -8.41796875 20.4921875 C-12.69892999 16.57314327 -16.6231532 15.13058821 -22.41796875 14.8671875 C-29.1833916 15.19138179 -33.66425209 17.13953747 -37.98046875 22.39453125 Z M-322.41796875 160.4921875 C-322.41796875 233.0921875 -322.41796875 305.6921875 -322.41796875 380.4921875 C-272.61018838 385.36359453 -272.61018838 385.36359453 -225.41796875 377.4921875 C-222.39488648 372.4951055 -221.98625682 367.81653479 -222.03701782 362.10473633 C-222.03233785 361.28698384 -222.02765788 360.46923136 -222.02283609 359.62669849 C-222.01091951 356.90070439 -222.02033017 354.17521612 -222.02978516 351.44921875 C-222.02571797 349.4891226 -222.02037527 347.52902874 -222.01385498 345.56893921 C-222.00019309 340.25494629 -222.00547543 334.94112835 -222.01499224 329.62713242 C-222.02259463 324.06237064 -222.01554161 318.4976237 -222.01083374 312.93286133 C-222.00537789 303.58835158 -222.01256336 294.243913 -222.02685547 284.89941406 C-222.04318162 274.10039345 -222.03789299 263.30154277 -222.02137625 252.50252628 C-222.00775657 243.22590462 -222.0058441 233.94933408 -222.01369226 224.67270565 C-222.0183661 219.13428398 -222.01900151 213.59594215 -222.00908279 208.05752563 C-222.00040844 202.85032838 -222.00644377 197.64334995 -222.02376556 192.4361763 C-222.02772787 190.52662138 -222.02660074 188.617048 -222.01997757 186.70750046 C-222.01176191 184.09796569 -222.02208379 181.48912913 -222.03701782 178.87963867 C-222.03032566 178.12661374 -222.02363349 177.37358881 -222.01673853 176.59774494 C-222.07226054 171.58509525 -222.81252239 167.79892743 -225.41796875 163.4921875 C-255.15120157 150.74937343 -290.0691752 160.4921875 -322.41796875 160.4921875 Z " fill="#000000" transform="translate(368.41796875,111.5078125)"/>
<path d="M0 0 C0.825 -0.01289063 1.65 -0.02578125 2.5 -0.0390625 C6.21521731 0.9477921 7.62070357 2.62579216 10 5.625 C10.72238332 8.54447356 10.68414638 11.378909 10.64697266 14.375 C10.66011505 15.68078003 10.66011505 15.68078003 10.67352295 17.01293945 C10.69548995 19.88413665 10.68097399 22.75378776 10.6640625 25.625 C10.66743141 27.62370092 10.67228466 29.62239984 10.67855835 31.62109375 C10.68592602 35.80749032 10.67522741 39.99335304 10.65185547 44.1796875 C10.62336794 49.54348239 10.63977245 54.90602639 10.66971779 60.26977539 C10.6877935 64.39625458 10.68203144 68.52243763 10.66907883 72.64892578 C10.66574558 74.62646635 10.66982903 76.60403389 10.68147659 78.58154297 C10.69418974 81.34675203 10.67480238 84.10994125 10.64697266 86.875 C10.65709381 87.69073486 10.66721497 88.50646973 10.67764282 89.34692383 C10.59834174 93.60425888 10.35823887 95.17342415 7.61581421 98.63037109 C4.77429939 100.79710281 3.5237761 101.305059 0 101.25 C-1.2375 101.26933594 -1.2375 101.26933594 -2.5 101.2890625 C-6.21521731 100.3022079 -7.62070357 98.62420784 -10 95.625 C-10.72238332 92.70552644 -10.68414638 89.871091 -10.64697266 86.875 C-10.65573425 86.00447998 -10.66449585 85.13395996 -10.67352295 84.23706055 C-10.69548995 81.36586335 -10.68097399 78.49621224 -10.6640625 75.625 C-10.66743141 73.62629908 -10.67228466 71.62760016 -10.67855835 69.62890625 C-10.68592602 65.44250968 -10.67522741 61.25664696 -10.65185547 57.0703125 C-10.62336794 51.70651761 -10.63977245 46.34397361 -10.66971779 40.98022461 C-10.6877935 36.85374542 -10.68203144 32.72756237 -10.66907883 28.60107422 C-10.66574558 26.62353365 -10.66982903 24.64596611 -10.68147659 22.66845703 C-10.69418974 19.90324797 -10.67480238 17.14005875 -10.64697266 14.375 C-10.66215439 13.15139771 -10.66215439 13.15139771 -10.67764282 11.90307617 C-10.59834174 7.64574112 -10.35823887 6.07657585 -7.61581421 2.61962891 C-4.77429939 0.45289719 -3.5237761 -0.055059 0 0 Z " fill="#000000" transform="translate(116,351.375)"/>
<path d="M0 0 C0.825 -0.01289063 1.65 -0.02578125 2.5 -0.0390625 C5.24757108 0.69076107 6.96422968 1.69909763 8.93035889 3.76113892 C11.38544007 8.03914414 10.70500666 13.400007 10.6640625 18.1875 C10.66884613 19.41154541 10.67362976 20.63559082 10.67855835 21.89672852 C10.68195778 24.4822722 10.67275263 27.06785884 10.65185547 29.65332031 C10.62509466 33.61100096 10.65160625 37.56584508 10.68359375 41.5234375 C10.68028966 44.03646459 10.67388347 46.54948992 10.6640625 49.0625 C10.67418365 50.24593994 10.68430481 51.42937988 10.69473267 52.64868164 C10.56452099 61.77498098 10.56452099 61.77498098 7.61474609 64.86865234 C4.79069946 66.76558899 3.37162289 67.30268161 0 67.25 C-1.2375 67.26933594 -1.2375 67.26933594 -2.5 67.2890625 C-5.24757108 66.55923893 -6.96422968 65.55090237 -8.93035889 63.48886108 C-11.38544007 59.21085586 -10.70500666 53.849993 -10.6640625 49.0625 C-10.66884613 47.83845459 -10.67362976 46.61440918 -10.67855835 45.35327148 C-10.68195778 42.7677278 -10.67275263 40.18214116 -10.65185547 37.59667969 C-10.62509466 33.63899904 -10.65160625 29.68415492 -10.68359375 25.7265625 C-10.68028966 23.21353541 -10.67388347 20.70051008 -10.6640625 18.1875 C-10.67418365 17.00406006 -10.68430481 15.82062012 -10.69473267 14.60131836 C-10.56452099 5.47501902 -10.56452099 5.47501902 -7.61474609 2.38134766 C-4.79069946 0.48441101 -3.37162289 -0.05268161 0 0 Z " fill="#000000" transform="translate(346,-0.625)"/>
<path d="M0 0 C2.87029869 1.79393668 4.49131638 2.98263276 6 6 C6.72649433 9.18012612 6.6825877 11.80881438 6 15 C4.34814453 17.29125977 4.34814453 17.29125977 2.1328125 19.62890625 C1.31538574 20.49789551 0.49795898 21.36688477 -0.34423828 22.26220703 C-1.22063965 23.16567871 -2.09704102 24.06915039 -3 25 C-3.86737793 25.89960449 -4.73475586 26.79920898 -5.62841797 27.72607422 C-8.31548367 30.48394275 -11.02828773 33.21384643 -13.75 35.9375 C-14.66910156 36.86884766 -15.58820313 37.80019531 -16.53515625 38.75976562 C-17.87126953 40.0987793 -17.87126953 40.0987793 -19.234375 41.46484375 C-20.03069336 42.265271 -20.82701172 43.06569824 -21.64746094 43.89038086 C-25.11687572 47.00154868 -27.79628691 48.82491446 -32.4375 49.5 C-37.16675851 48.83624442 -38.65681791 47.34318209 -42 44 C-43.60745059 40.78509882 -43.40305242 38.5698929 -43 35 C-38.99649431 27.62082088 -31.94315587 21.67202239 -26.03100586 15.82519531 C-24.30059934 14.11322614 -22.57850991 12.39320727 -20.85742188 10.671875 C-19.75568184 9.57504501 -18.65348469 8.47867393 -17.55078125 7.3828125 C-17.03824295 6.87138702 -16.52570465 6.35996155 -15.99763489 5.83303833 C-10.74151568 0.64664557 -7.31798939 -1.07844054 0 0 Z " fill="#000000" transform="translate(435,41)"/>
<path d="M0 0 C2.29125977 1.65185547 2.29125977 1.65185547 4.62890625 3.8671875 C5.49789551 4.68461426 6.36688477 5.50204102 7.26220703 6.34423828 C8.16567871 7.22063965 9.06915039 8.09704102 10 9 C10.89960449 9.86737793 11.79920898 10.73475586 12.72607422 11.62841797 C15.48394275 14.31548367 18.21384643 17.02828773 20.9375 19.75 C21.86884766 20.66910156 22.80019531 21.58820312 23.75976562 22.53515625 C25.0987793 23.87126953 25.0987793 23.87126953 26.46484375 25.234375 C27.265271 26.03069336 28.06569824 26.82701172 28.89038086 27.64746094 C32.00154868 31.11687572 33.82491446 33.79628691 34.5 38.4375 C33.83624442 43.16675851 32.34318209 44.65681791 29 48 C25.78509882 49.60745059 23.5698929 49.40305242 20 49 C12.62082088 44.99649431 6.67202239 37.94315587 0.82519531 32.03100586 C-0.88677386 30.30059934 -2.60679273 28.57850991 -4.328125 26.85742188 C-5.42495499 25.75568184 -6.52132607 24.65348469 -7.6171875 23.55078125 C-8.12861298 23.03824295 -8.64003845 22.52570465 -9.16696167 21.99763489 C-15.28676526 15.79555598 -15.28676526 15.79555598 -15.375 10.625 C-15.30696946 7.14410381 -15.04360709 6.06977134 -13.125 3 C-9.15368018 -0.73771277 -5.24503219 -1.12190104 0 0 Z " fill="#000000" transform="translate(266,41)"/>
<path d="M0 0 C1.63630371 -0.00717545 1.63630371 -0.00717545 3.30566406 -0.01449585 C5.60873865 -0.01789363 7.91186155 -0.00869993 10.21484375 0.01220703 C13.73807417 0.0389719 17.25811856 0.01245249 20.78125 -0.01953125 C23.02084036 -0.01622713 25.26042874 -0.00982087 27.5 0 C29.0782959 -0.01518173 29.0782959 -0.01518173 30.68847656 -0.03067017 C37.98394523 0.08612002 37.98394523 0.08612002 41.91162109 3.04931641 C43.90180869 5.87998163 44.42849626 7.24030213 44.375 10.6640625 C44.38789063 11.4890625 44.40078125 12.3140625 44.4140625 13.1640625 C43.4001428 16.98117195 41.9127464 18.27795962 38.75 20.6640625 C35.00329723 21.41549442 31.31113404 21.36478455 27.5 21.328125 C26.40913086 21.33290863 25.31826172 21.33769226 24.19433594 21.34262085 C21.89126135 21.34601863 19.58813845 21.33682493 17.28515625 21.31591797 C13.76192583 21.2891531 10.24188144 21.31567251 6.71875 21.34765625 C4.47915964 21.34435213 2.23957126 21.33794587 0 21.328125 C-1.05219727 21.33824615 -2.10439453 21.34836731 -3.18847656 21.35879517 C-10.48394523 21.24200498 -10.48394523 21.24200498 -14.41162109 18.27880859 C-16.40180869 15.44814337 -16.92849626 14.08782287 -16.875 10.6640625 C-16.88789063 9.8390625 -16.90078125 9.0140625 -16.9140625 8.1640625 C-14.61326817 -0.49775146 -7.43719146 -0.07153883 0 0 Z " fill="#000000" transform="translate(432.25,125.3359375)"/>
<path d="M0 0 C1.63630371 -0.00717545 1.63630371 -0.00717545 3.30566406 -0.01449585 C5.60873865 -0.01789363 7.91186155 -0.00869993 10.21484375 0.01220703 C13.73807417 0.0389719 17.25811856 0.01245249 20.78125 -0.01953125 C23.02084036 -0.01622713 25.26042874 -0.00982087 27.5 0 C29.0782959 -0.01518173 29.0782959 -0.01518173 30.68847656 -0.03067017 C37.98394523 0.08612002 37.98394523 0.08612002 41.91162109 3.04931641 C43.90180869 5.87998163 44.42849626 7.24030213 44.375 10.6640625 C44.38789063 11.4890625 44.40078125 12.3140625 44.4140625 13.1640625 C43.4001428 16.98117195 41.9127464 18.27795962 38.75 20.6640625 C35.00329723 21.41549442 31.31113404 21.36478455 27.5 21.328125 C26.40913086 21.33290863 25.31826172 21.33769226 24.19433594 21.34262085 C21.89126135 21.34601863 19.58813845 21.33682493 17.28515625 21.31591797 C13.76192583 21.2891531 10.24188144 21.31567251 6.71875 21.34765625 C4.47915964 21.34435213 2.23957126 21.33794587 0 21.328125 C-1.05219727 21.33824615 -2.10439453 21.34836731 -3.18847656 21.35879517 C-10.48394523 21.24200498 -10.48394523 21.24200498 -14.41162109 18.27880859 C-16.40180869 15.44814337 -16.92849626 14.08782287 -16.875 10.6640625 C-16.88789063 9.8390625 -16.90078125 9.0140625 -16.9140625 8.1640625 C-14.61326817 -0.49775146 -7.43719146 -0.07153883 0 0 Z " fill="#000000" transform="translate(232.25,125.3359375)"/>
<path d="M0 0 C3.125 1.875 3.125 1.875 5 5 C5.98876625 10.02622846 5.7769173 13.70513784 3.125 18.125 C-1.29486216 20.7769173 -4.97377154 20.98876625 -10 20 C-13.125 18.125 -13.125 18.125 -15 15 C-15.98876625 9.97377154 -15.7769173 6.29486216 -13.125 1.875 C-8.70513784 -0.7769173 -5.02622846 -0.98876625 0 0 Z " fill="#000000" transform="translate(121,312)"/>
</svg>
